<mxfile host="65bd71144e">
    <diagram id="RRRTEX8sp4v0L56JPBFA" name="Page-1">
        <mxGraphModel dx="1431" dy="804" grid="1" gridSize="10" guides="1" tooltips="1" connect="1" arrows="1" fold="1" page="1" pageScale="1" pageWidth="1169" pageHeight="827" background="#FFFFFF" math="0" shadow="0">
            <root>
                <mxCell id="0"/>
                <mxCell id="1" parent="0"/>
                <mxCell id="76" style="edgeStyle=elbowEdgeStyle;html=1;fontFamily=Helvetica;fontSize=12;fontColor=default;startSize=26;strokeColor=#3333FF;strokeWidth=4;" edge="1" parent="1" source="6" target="39">
                    <mxGeometry relative="1" as="geometry"/>
                </mxCell>
                <mxCell id="77" style="edgeStyle=elbowEdgeStyle;html=1;fontFamily=Helvetica;fontSize=12;fontColor=default;startSize=26;elbow=vertical;strokeColor=#3333FF;strokeWidth=4;" edge="1" parent="1" source="6" target="63">
                    <mxGeometry relative="1" as="geometry"/>
                </mxCell>
                <mxCell id="6" value="&lt;AppForm {... parametros} /&gt;&#10;&gt;" style="swimlane;fontStyle=1;align=center;verticalAlign=top;childLayout=stackLayout;horizontal=1;startSize=26;horizontalStack=0;resizeParent=1;resizeParentMax=0;resizeLast=0;collapsible=1;marginBottom=0;swimlaneFillColor=#FFFFFF;" vertex="1" parent="1">
                    <mxGeometry x="720" y="163" width="400" height="502" as="geometry"/>
                </mxCell>
                <mxCell id="7" value="+ const token_csrf = parametros.token_csrf || '';" style="text;strokeColor=none;fillColor=none;align=left;verticalAlign=top;spacingLeft=4;spacingRight=4;overflow=hidden;rotatable=0;points=[[0,0.5],[1,0.5]];portConstraint=eastwest;" vertex="1" parent="6">
                    <mxGeometry y="26" width="400" height="26" as="geometry"/>
                </mxCell>
                <mxCell id="18" value="+ const base_url = parametros.base_url || []];" style="text;strokeColor=none;fillColor=none;align=left;verticalAlign=top;spacingLeft=4;spacingRight=4;overflow=hidden;rotatable=0;points=[[0,0.5],[1,0.5]];portConstraint=eastwest;" vertex="1" parent="6">
                    <mxGeometry y="52" width="400" height="26" as="geometry"/>
                </mxCell>
                <mxCell id="17" value="+ const api_empresa_exibir = parametros.api_empresa_exibir || '';" style="text;strokeColor=none;fillColor=none;align=left;verticalAlign=top;spacingLeft=4;spacingRight=4;overflow=hidden;rotatable=0;points=[[0,0.5],[1,0.5]];portConstraint=eastwest;" vertex="1" parent="6">
                    <mxGeometry y="78" width="400" height="26" as="geometry"/>
                </mxCell>
                <mxCell id="24" value="+ const api_empresa_filtrar = parametros.api_empresa_filtrar || '';&#10;" style="text;strokeColor=none;fillColor=none;align=left;verticalAlign=top;spacingLeft=4;spacingRight=4;overflow=hidden;rotatable=0;points=[[0,0.5],[1,0.5]];portConstraint=eastwest;" vertex="1" parent="6">
                    <mxGeometry y="104" width="400" height="26" as="geometry"/>
                </mxCell>
                <mxCell id="23" value="+ const [alertType, setAlertType] = React.useState('');" style="text;strokeColor=none;fillColor=none;align=left;verticalAlign=top;spacingLeft=4;spacingRight=4;overflow=hidden;rotatable=0;points=[[0,0.5],[1,0.5]];portConstraint=eastwest;" vertex="1" parent="6">
                    <mxGeometry y="130" width="400" height="26" as="geometry"/>
                </mxCell>
                <mxCell id="22" value="+ const [alertMessage, setAlertMessage] = React.useState('');" style="text;strokeColor=none;fillColor=none;align=left;verticalAlign=top;spacingLeft=4;spacingRight=4;overflow=hidden;rotatable=0;points=[[0,0.5],[1,0.5]];portConstraint=eastwest;" vertex="1" parent="6">
                    <mxGeometry y="156" width="400" height="26" as="geometry"/>
                </mxCell>
                <mxCell id="21" value="+ const [message, setMessage] = React.useState({ });" style="text;strokeColor=none;fillColor=none;align=left;verticalAlign=top;spacingLeft=4;spacingRight=4;overflow=hidden;rotatable=0;points=[[0,0.5],[1,0.5]];portConstraint=eastwest;" vertex="1" parent="6">
                    <mxGeometry y="182" width="400" height="26" as="geometry"/>
                </mxCell>
                <mxCell id="20" value="+ const [internalFormData, internalSetFormData] = React.useState({ });" style="text;strokeColor=none;fillColor=none;align=left;verticalAlign=top;spacingLeft=4;spacingRight=4;overflow=hidden;rotatable=0;points=[[0,0.5],[1,0.5]];portConstraint=eastwest;" vertex="1" parent="6">
                    <mxGeometry y="208" width="400" height="26" as="geometry"/>
                </mxCell>
                <mxCell id="35" value="+ const formData = externalFormData || internalFormData;" style="text;strokeColor=none;fillColor=#FFFF99;align=left;verticalAlign=top;spacingLeft=4;spacingRight=4;overflow=hidden;rotatable=0;points=[[0,0.5],[1,0.5]];portConstraint=eastwest;" vertex="1" parent="6">
                    <mxGeometry y="234" width="400" height="26" as="geometry"/>
                </mxCell>
                <mxCell id="36" value="+ const setFormData = externalSetFormData || internalSetFormData;" style="text;strokeColor=none;fillColor=#FFFF99;align=left;verticalAlign=top;spacingLeft=4;spacingRight=4;overflow=hidden;rotatable=0;points=[[0,0.5],[1,0.5]];portConstraint=eastwest;" vertex="1" parent="6">
                    <mxGeometry y="260" width="400" height="26" as="geometry"/>
                </mxCell>
                <mxCell id="8" value="" style="line;strokeWidth=1;fillColor=none;align=left;verticalAlign=middle;spacingTop=-1;spacingLeft=3;spacingRight=3;rotatable=0;labelPosition=right;points=[];portConstraint=eastwest;strokeColor=inherit;" vertex="1" parent="6">
                    <mxGeometry y="286" width="400" height="8" as="geometry"/>
                </mxCell>
                <mxCell id="9" value="+ const submitAllForms = async (apiIdentifier) =&gt; { };" style="text;strokeColor=none;fillColor=none;align=left;verticalAlign=top;spacingLeft=4;spacingRight=4;overflow=hidden;rotatable=0;points=[[0,0.5],[1,0.5]];portConstraint=eastwest;" vertex="1" parent="6">
                    <mxGeometry y="294" width="400" height="26" as="geometry"/>
                </mxCell>
                <mxCell id="30" value="+ const fetchFilter = async ( };" style="text;strokeColor=none;fillColor=none;align=left;verticalAlign=top;spacingLeft=4;spacingRight=4;overflow=hidden;rotatable=0;points=[[0,0.5],[1,0.5]];portConstraint=eastwest;" vertex="1" parent="6">
                    <mxGeometry y="320" width="400" height="26" as="geometry"/>
                </mxCell>
                <mxCell id="31" value="+ const fetchEmpresa = async ( };" style="text;strokeColor=none;fillColor=none;align=left;verticalAlign=top;spacingLeft=4;spacingRight=4;overflow=hidden;rotatable=0;points=[[0,0.5],[1,0.5]];portConstraint=eastwest;" vertex="1" parent="6">
                    <mxGeometry y="346" width="400" height="26" as="geometry"/>
                </mxCell>
                <mxCell id="32" value="+ const handleFocus = (event) =&gt; { };" style="text;strokeColor=none;fillColor=none;align=left;verticalAlign=top;spacingLeft=4;spacingRight=4;overflow=hidden;rotatable=0;points=[[0,0.5],[1,0.5]];portConstraint=eastwest;" vertex="1" parent="6">
                    <mxGeometry y="372" width="400" height="26" as="geometry"/>
                </mxCell>
                <mxCell id="33" value="+ const handleChange = (event) =&gt; { };" style="text;strokeColor=none;fillColor=none;align=left;verticalAlign=top;spacingLeft=4;spacingRight=4;overflow=hidden;rotatable=0;points=[[0,0.5],[1,0.5]];portConstraint=eastwest;" vertex="1" parent="6">
                    <mxGeometry y="398" width="400" height="26" as="geometry"/>
                </mxCell>
                <mxCell id="34" value="+ const handleBlur = (event) =&gt; { };" style="text;strokeColor=none;fillColor=none;align=left;verticalAlign=top;spacingLeft=4;spacingRight=4;overflow=hidden;rotatable=0;points=[[0,0.5],[1,0.5]];portConstraint=eastwest;" vertex="1" parent="6">
                    <mxGeometry y="424" width="400" height="26" as="geometry"/>
                </mxCell>
                <mxCell id="37" value="+ const redirectTo = (url) =&gt; { };" style="text;strokeColor=none;fillColor=none;align=left;verticalAlign=top;spacingLeft=4;spacingRight=4;overflow=hidden;rotatable=0;points=[[0,0.5],[1,0.5]];portConstraint=eastwest;" vertex="1" parent="6">
                    <mxGeometry y="450" width="400" height="26" as="geometry"/>
                </mxCell>
                <mxCell id="38" value="+ return ( &lt;AppEmpresaSelect {...} /&gt; &lt;AppEmpresaSelectMult {...} /&gt;);" style="text;strokeColor=none;fillColor=none;align=left;verticalAlign=top;spacingLeft=4;spacingRight=4;overflow=hidden;rotatable=0;points=[[0,0.5],[1,0.5]];portConstraint=eastwest;" vertex="1" parent="6">
                    <mxGeometry y="476" width="400" height="26" as="geometry"/>
                </mxCell>
                <mxCell id="74" style="edgeStyle=elbowEdgeStyle;html=1;fontFamily=Helvetica;fontSize=12;fontColor=default;startSize=26;strokeColor=#FF0000;strokeWidth=4;" edge="1" parent="1" source="2" target="6">
                    <mxGeometry relative="1" as="geometry"/>
                </mxCell>
                <mxCell id="2" value="AppCadastrar" style="swimlane;fontStyle=1;align=center;verticalAlign=top;childLayout=stackLayout;horizontal=1;startSize=26;horizontalStack=0;resizeParent=1;resizeParentMax=0;resizeLast=0;collapsible=1;marginBottom=0;gradientColor=none;swimlaneFillColor=#FFFFFF;" parent="1" vertex="1">
                    <mxGeometry x="40" y="40" width="240" height="294" as="geometry"/>
                </mxCell>
                <mxCell id="3" value="+ const parametros: JSON.parse();" style="text;strokeColor=none;fillColor=#FFFF99;align=left;verticalAlign=top;spacingLeft=4;spacingRight=4;overflow=hidden;rotatable=0;points=[[0,0.5],[1,0.5]];portConstraint=eastwest;" parent="2" vertex="1">
                    <mxGeometry y="26" width="240" height="26" as="geometry"/>
                </mxCell>
                <mxCell id="29" value="+ const getURI: json" style="text;strokeColor=none;fillColor=none;align=left;verticalAlign=top;spacingLeft=4;spacingRight=4;overflow=hidden;rotatable=0;points=[[0,0.5],[1,0.5]];portConstraint=eastwest;" vertex="1" parent="2">
                    <mxGeometry y="52" width="240" height="26" as="geometry"/>
                </mxCell>
                <mxCell id="10" value="+ const debugMyPrint: Boolean" style="text;strokeColor=none;fillColor=none;align=left;verticalAlign=top;spacingLeft=4;spacingRight=4;overflow=hidden;rotatable=0;points=[[0,0.5],[1,0.5]];portConstraint=eastwest;" vertex="1" parent="2">
                    <mxGeometry y="78" width="240" height="26" as="geometry"/>
                </mxCell>
                <mxCell id="11" value="+ const  request_scheme: String" style="text;strokeColor=none;fillColor=none;align=left;verticalAlign=top;spacingLeft=4;spacingRight=4;overflow=hidden;rotatable=0;points=[[0,0.5],[1,0.5]];portConstraint=eastwest;" vertex="1" parent="2">
                    <mxGeometry y="104" width="240" height="26" as="geometry"/>
                </mxCell>
                <mxCell id="12" value="+ const server_name: String" style="text;strokeColor=none;fillColor=none;align=left;verticalAlign=top;spacingLeft=4;spacingRight=4;overflow=hidden;rotatable=0;points=[[0,0.5],[1,0.5]];portConstraint=eastwest;" vertex="1" parent="2">
                    <mxGeometry y="130" width="240" height="26" as="geometry"/>
                </mxCell>
                <mxCell id="13" value="+ const  server_port: integer" style="text;strokeColor=none;fillColor=none;align=left;verticalAlign=top;spacingLeft=4;spacingRight=4;overflow=hidden;rotatable=0;points=[[0,0.5],[1,0.5]];portConstraint=eastwest;" vertex="1" parent="2">
                    <mxGeometry y="156" width="240" height="26" as="geometry"/>
                </mxCell>
                <mxCell id="14" value="+ const base_url: String" style="text;strokeColor=none;fillColor=none;align=left;verticalAlign=top;spacingLeft=4;spacingRight=4;overflow=hidden;rotatable=0;points=[[0,0.5],[1,0.5]];portConstraint=eastwest;" vertex="1" parent="2">
                    <mxGeometry y="182" width="240" height="26" as="geometry"/>
                </mxCell>
                <mxCell id="15" value="+ const token_csrf: String" style="text;strokeColor=none;fillColor=none;align=left;verticalAlign=top;spacingLeft=4;spacingRight=4;overflow=hidden;rotatable=0;points=[[0,0.5],[1,0.5]];portConstraint=eastwest;" vertex="1" parent="2">
                    <mxGeometry y="208" width="240" height="26" as="geometry"/>
                </mxCell>
                <mxCell id="4" value="" style="line;strokeWidth=1;fillColor=none;align=left;verticalAlign=middle;spacingTop=-1;spacingLeft=3;spacingRight=3;rotatable=0;labelPosition=right;points=[];portConstraint=eastwest;strokeColor=inherit;" parent="2" vertex="1">
                    <mxGeometry y="234" width="240" height="8" as="geometry"/>
                </mxCell>
                <mxCell id="5" value="+ return (&lt;AppForm {...} /&gt;): render JFX" style="text;strokeColor=none;fillColor=#CCFF99;align=left;verticalAlign=top;spacingLeft=4;spacingRight=4;overflow=hidden;rotatable=0;points=[[0,0.5],[1,0.5]];portConstraint=eastwest;" parent="2" vertex="1">
                    <mxGeometry y="242" width="240" height="26" as="geometry"/>
                </mxCell>
                <mxCell id="16" value="+ root.render(&lt;AppCadastrarEmpresa /&gt;);" style="text;strokeColor=none;fillColor=#CCFF99;align=left;verticalAlign=top;spacingLeft=4;spacingRight=4;overflow=hidden;rotatable=0;points=[[0,0.5],[1,0.5]];portConstraint=eastwest;" vertex="1" parent="2">
                    <mxGeometry y="268" width="240" height="26" as="geometry"/>
                </mxCell>
                <mxCell id="39" value="&lt;AppEmpresaSelect {... parametros} /&gt;" style="swimlane;fontStyle=1;align=center;verticalAlign=top;childLayout=stackLayout;horizontal=1;startSize=26;horizontalStack=0;resizeParent=1;resizeParentMax=0;resizeLast=0;collapsible=1;marginBottom=0;strokeColor=default;fontFamily=Helvetica;fontSize=12;fontColor=default;fillColor=default;swimlaneFillColor=#FFFFFF;" vertex="1" parent="1">
                    <mxGeometry x="560" y="920" width="440" height="268" as="geometry"/>
                </mxCell>
                <mxCell id="40" value="+ const [showAlert, setShowAlert] = React.useState(false);" style="text;strokeColor=none;fillColor=none;align=left;verticalAlign=top;spacingLeft=4;spacingRight=4;overflow=hidden;rotatable=0;points=[[0,0.5],[1,0.5]];portConstraint=eastwest;fontFamily=Helvetica;fontSize=12;fontColor=default;startSize=26;" vertex="1" parent="39">
                    <mxGeometry y="26" width="440" height="26" as="geometry"/>
                </mxCell>
                <mxCell id="46" value="+ const [alertType, setAlertType] = React.useState('');" style="text;strokeColor=none;fillColor=none;align=left;verticalAlign=top;spacingLeft=4;spacingRight=4;overflow=hidden;rotatable=0;points=[[0,0.5],[1,0.5]];portConstraint=eastwest;fontFamily=Helvetica;fontSize=12;fontColor=default;startSize=26;" vertex="1" parent="39">
                    <mxGeometry y="52" width="440" height="26" as="geometry"/>
                </mxCell>
                <mxCell id="45" value="+ const [alertMessage, setAlertMessage] = React.useState('');" style="text;strokeColor=none;fillColor=none;align=left;verticalAlign=top;spacingLeft=4;spacingRight=4;overflow=hidden;rotatable=0;points=[[0,0.5],[1,0.5]];portConstraint=eastwest;fontFamily=Helvetica;fontSize=12;fontColor=default;startSize=26;" vertex="1" parent="39">
                    <mxGeometry y="78" width="440" height="26" as="geometry"/>
                </mxCell>
                <mxCell id="44" value="+ const [showEmptyMessage, setShowEmptyMessage] = React.useState(false);" style="text;strokeColor=none;fillColor=none;align=left;verticalAlign=top;spacingLeft=4;spacingRight=4;overflow=hidden;rotatable=0;points=[[0,0.5],[1,0.5]];portConstraint=eastwest;fontFamily=Helvetica;fontSize=12;fontColor=default;startSize=26;" vertex="1" parent="39">
                    <mxGeometry y="104" width="440" height="26" as="geometry"/>
                </mxCell>
                <mxCell id="43" value="+ const [message, setMessage] = React.useState({ });" style="text;strokeColor=none;fillColor=none;align=left;verticalAlign=top;spacingLeft=4;spacingRight=4;overflow=hidden;rotatable=0;points=[[0,0.5],[1,0.5]];portConstraint=eastwest;fontFamily=Helvetica;fontSize=12;fontColor=default;startSize=26;" vertex="1" parent="39">
                    <mxGeometry y="130" width="440" height="26" as="geometry"/>
                </mxCell>
                <mxCell id="41" value="" style="line;strokeWidth=1;fillColor=none;align=left;verticalAlign=middle;spacingTop=-1;spacingLeft=3;spacingRight=3;rotatable=0;labelPosition=right;points=[];portConstraint=eastwest;strokeColor=inherit;fontFamily=Helvetica;fontSize=12;fontColor=default;startSize=26;" vertex="1" parent="39">
                    <mxGeometry y="156" width="440" height="8" as="geometry"/>
                </mxCell>
                <mxCell id="42" value="+ const handleFocus = (event) =&gt; { };" style="text;strokeColor=none;fillColor=none;align=left;verticalAlign=top;spacingLeft=4;spacingRight=4;overflow=hidden;rotatable=0;points=[[0,0.5],[1,0.5]];portConstraint=eastwest;fontFamily=Helvetica;fontSize=12;fontColor=default;startSize=26;" vertex="1" parent="39">
                    <mxGeometry y="164" width="440" height="26" as="geometry"/>
                </mxCell>
                <mxCell id="47" value="+ const handleChange= (event) =&gt; { };" style="text;strokeColor=none;fillColor=none;align=left;verticalAlign=top;spacingLeft=4;spacingRight=4;overflow=hidden;rotatable=0;points=[[0,0.5],[1,0.5]];portConstraint=eastwest;fontFamily=Helvetica;fontSize=12;fontColor=default;startSize=26;" vertex="1" parent="39">
                    <mxGeometry y="190" width="440" height="26" as="geometry"/>
                </mxCell>
                <mxCell id="48" value="+ const handleBlur= (event) =&gt; { };" style="text;strokeColor=none;fillColor=none;align=left;verticalAlign=top;spacingLeft=4;spacingRight=4;overflow=hidden;rotatable=0;points=[[0,0.5],[1,0.5]];portConstraint=eastwest;fontFamily=Helvetica;fontSize=12;fontColor=default;startSize=26;" vertex="1" parent="39">
                    <mxGeometry y="216" width="440" height="26" as="geometry"/>
                </mxCell>
                <mxCell id="49" value="+ return( &quot;CampoSelect&quot; );" style="text;strokeColor=none;fillColor=none;align=left;verticalAlign=top;spacingLeft=4;spacingRight=4;overflow=hidden;rotatable=0;points=[[0,0.5],[1,0.5]];portConstraint=eastwest;fontFamily=Helvetica;fontSize=12;fontColor=default;startSize=26;" vertex="1" parent="39">
                    <mxGeometry y="242" width="440" height="26" as="geometry"/>
                </mxCell>
                <mxCell id="78" style="edgeStyle=elbowEdgeStyle;html=1;fontFamily=Helvetica;fontSize=12;fontColor=default;startSize=26;strokeColor=#66CC00;strokeWidth=4;" edge="1" parent="1" source="51" target="63">
                    <mxGeometry relative="1" as="geometry"/>
                </mxCell>
                <mxCell id="79" style="edgeStyle=elbowEdgeStyle;html=1;fontFamily=Helvetica;fontSize=12;fontColor=default;startSize=26;elbow=vertical;strokeColor=#66CC00;strokeWidth=4;" edge="1" parent="1" source="51" target="39">
                    <mxGeometry relative="1" as="geometry"/>
                </mxCell>
                <mxCell id="51" value="&lt;AppMessage{... parametros} /&gt;" style="swimlane;fontStyle=1;align=center;verticalAlign=top;childLayout=stackLayout;horizontal=1;startSize=26;horizontalStack=0;resizeParent=1;resizeParentMax=0;resizeLast=0;collapsible=1;marginBottom=0;strokeColor=default;fontFamily=Helvetica;fontSize=12;fontColor=default;fillColor=default;swimlaneFillColor=#FFFFFF;" vertex="1" parent="1">
                    <mxGeometry x="80" y="480" width="480" height="216" as="geometry"/>
                </mxCell>
                <mxCell id="52" value="+ const [showAlert, setShowAlert] = React.useState(parametros.show ?? false);" style="text;strokeColor=none;fillColor=none;align=left;verticalAlign=top;spacingLeft=4;spacingRight=4;overflow=hidden;rotatable=0;points=[[0,0.5],[1,0.5]];portConstraint=eastwest;fontFamily=Helvetica;fontSize=12;fontColor=default;startSize=26;" vertex="1" parent="51">
                    <mxGeometry y="26" width="480" height="26" as="geometry"/>
                </mxCell>
                <mxCell id="53" value="+ const [alertMessage, setAlertMessage] = React.useState(parametros.message ?? '');" style="text;strokeColor=none;fillColor=none;align=left;verticalAlign=top;spacingLeft=4;spacingRight=4;overflow=hidden;rotatable=0;points=[[0,0.5],[1,0.5]];portConstraint=eastwest;fontFamily=Helvetica;fontSize=12;fontColor=default;startSize=26;" vertex="1" parent="51">
                    <mxGeometry y="52" width="480" height="26" as="geometry"/>
                </mxCell>
                <mxCell id="54" value="+ const [startTransition, setStartTransition] = React.useState(false);" style="text;strokeColor=none;fillColor=none;align=left;verticalAlign=top;spacingLeft=4;spacingRight=4;overflow=hidden;rotatable=0;points=[[0,0.5],[1,0.5]];portConstraint=eastwest;fontFamily=Helvetica;fontSize=12;fontColor=default;startSize=26;" vertex="1" parent="51">
                    <mxGeometry y="78" width="480" height="26" as="geometry"/>
                </mxCell>
                <mxCell id="62" value="+ const offcanvasStyles = { };" style="text;strokeColor=none;fillColor=none;align=left;verticalAlign=top;spacingLeft=4;spacingRight=4;overflow=hidden;rotatable=0;points=[[0,0.5],[1,0.5]];portConstraint=eastwest;fontFamily=Helvetica;fontSize=12;fontColor=default;startSize=26;" vertex="1" parent="51">
                    <mxGeometry y="104" width="480" height="26" as="geometry"/>
                </mxCell>
                <mxCell id="57" value="" style="line;strokeWidth=1;fillColor=none;align=left;verticalAlign=middle;spacingTop=-1;spacingLeft=3;spacingRight=3;rotatable=0;labelPosition=right;points=[];portConstraint=eastwest;strokeColor=inherit;fontFamily=Helvetica;fontSize=12;fontColor=default;startSize=26;" vertex="1" parent="51">
                    <mxGeometry y="130" width="480" height="8" as="geometry"/>
                </mxCell>
                <mxCell id="58" value="+ const handleClose = () =&gt; { };" style="text;strokeColor=none;fillColor=none;align=left;verticalAlign=top;spacingLeft=4;spacingRight=4;overflow=hidden;rotatable=0;points=[[0,0.5],[1,0.5]];portConstraint=eastwest;fontFamily=Helvetica;fontSize=12;fontColor=default;startSize=26;" vertex="1" parent="51">
                    <mxGeometry y="138" width="480" height="26" as="geometry"/>
                </mxCell>
                <mxCell id="59" value="+ React.useEffect(() =&gt; { }, [parametros]" style="text;strokeColor=none;fillColor=none;align=left;verticalAlign=top;spacingLeft=4;spacingRight=4;overflow=hidden;rotatable=0;points=[[0,0.5],[1,0.5]];portConstraint=eastwest;fontFamily=Helvetica;fontSize=12;fontColor=default;startSize=26;" vertex="1" parent="51">
                    <mxGeometry y="164" width="480" height="26" as="geometry"/>
                </mxCell>
                <mxCell id="61" value="+ return( showAlert &amp;&amp; ( &quot;HTML&quot; ) );" style="text;strokeColor=none;fillColor=none;align=left;verticalAlign=top;spacingLeft=4;spacingRight=4;overflow=hidden;rotatable=0;points=[[0,0.5],[1,0.5]];portConstraint=eastwest;fontFamily=Helvetica;fontSize=12;fontColor=default;startSize=26;" vertex="1" parent="51">
                    <mxGeometry y="190" width="480" height="26" as="geometry"/>
                </mxCell>
                <mxCell id="63" value="&lt;AppEmpresaSelect {... parametros} /&gt;" style="swimlane;fontStyle=1;align=center;verticalAlign=top;childLayout=stackLayout;horizontal=1;startSize=26;horizontalStack=0;resizeParent=1;resizeParentMax=0;resizeLast=0;collapsible=1;marginBottom=0;strokeColor=default;fontFamily=Helvetica;fontSize=12;fontColor=default;fillColor=default;swimlaneFillColor=#FFFFFF;" vertex="1" parent="1">
                    <mxGeometry x="40" y="1000" width="440" height="268" as="geometry"/>
                </mxCell>
                <mxCell id="64" value="+ const [showAlert, setShowAlert] = React.useState(false);" style="text;strokeColor=none;fillColor=none;align=left;verticalAlign=top;spacingLeft=4;spacingRight=4;overflow=hidden;rotatable=0;points=[[0,0.5],[1,0.5]];portConstraint=eastwest;fontFamily=Helvetica;fontSize=12;fontColor=default;startSize=26;" vertex="1" parent="63">
                    <mxGeometry y="26" width="440" height="26" as="geometry"/>
                </mxCell>
                <mxCell id="65" value="+ const [alertType, setAlertType] = React.useState('');" style="text;strokeColor=none;fillColor=none;align=left;verticalAlign=top;spacingLeft=4;spacingRight=4;overflow=hidden;rotatable=0;points=[[0,0.5],[1,0.5]];portConstraint=eastwest;fontFamily=Helvetica;fontSize=12;fontColor=default;startSize=26;" vertex="1" parent="63">
                    <mxGeometry y="52" width="440" height="26" as="geometry"/>
                </mxCell>
                <mxCell id="66" value="+ const [alertMessage, setAlertMessage] = React.useState('');" style="text;strokeColor=none;fillColor=none;align=left;verticalAlign=top;spacingLeft=4;spacingRight=4;overflow=hidden;rotatable=0;points=[[0,0.5],[1,0.5]];portConstraint=eastwest;fontFamily=Helvetica;fontSize=12;fontColor=default;startSize=26;" vertex="1" parent="63">
                    <mxGeometry y="78" width="440" height="26" as="geometry"/>
                </mxCell>
                <mxCell id="67" value="+ const [showEmptyMessage, setShowEmptyMessage] = React.useState(false);" style="text;strokeColor=none;fillColor=none;align=left;verticalAlign=top;spacingLeft=4;spacingRight=4;overflow=hidden;rotatable=0;points=[[0,0.5],[1,0.5]];portConstraint=eastwest;fontFamily=Helvetica;fontSize=12;fontColor=default;startSize=26;" vertex="1" parent="63">
                    <mxGeometry y="104" width="440" height="26" as="geometry"/>
                </mxCell>
                <mxCell id="68" value="+ const [message, setMessage] = React.useState({ });" style="text;strokeColor=none;fillColor=none;align=left;verticalAlign=top;spacingLeft=4;spacingRight=4;overflow=hidden;rotatable=0;points=[[0,0.5],[1,0.5]];portConstraint=eastwest;fontFamily=Helvetica;fontSize=12;fontColor=default;startSize=26;" vertex="1" parent="63">
                    <mxGeometry y="130" width="440" height="26" as="geometry"/>
                </mxCell>
                <mxCell id="69" value="" style="line;strokeWidth=1;fillColor=none;align=left;verticalAlign=middle;spacingTop=-1;spacingLeft=3;spacingRight=3;rotatable=0;labelPosition=right;points=[];portConstraint=eastwest;strokeColor=inherit;fontFamily=Helvetica;fontSize=12;fontColor=default;startSize=26;" vertex="1" parent="63">
                    <mxGeometry y="156" width="440" height="8" as="geometry"/>
                </mxCell>
                <mxCell id="70" value="+ const handleFocus = (event) =&gt; { };" style="text;strokeColor=none;fillColor=none;align=left;verticalAlign=top;spacingLeft=4;spacingRight=4;overflow=hidden;rotatable=0;points=[[0,0.5],[1,0.5]];portConstraint=eastwest;fontFamily=Helvetica;fontSize=12;fontColor=default;startSize=26;" vertex="1" parent="63">
                    <mxGeometry y="164" width="440" height="26" as="geometry"/>
                </mxCell>
                <mxCell id="71" value="+ const handleChange= (event) =&gt; { };" style="text;strokeColor=none;fillColor=none;align=left;verticalAlign=top;spacingLeft=4;spacingRight=4;overflow=hidden;rotatable=0;points=[[0,0.5],[1,0.5]];portConstraint=eastwest;fontFamily=Helvetica;fontSize=12;fontColor=default;startSize=26;" vertex="1" parent="63">
                    <mxGeometry y="190" width="440" height="26" as="geometry"/>
                </mxCell>
                <mxCell id="72" value="+ const handleBlur= (event) =&gt; { };" style="text;strokeColor=none;fillColor=none;align=left;verticalAlign=top;spacingLeft=4;spacingRight=4;overflow=hidden;rotatable=0;points=[[0,0.5],[1,0.5]];portConstraint=eastwest;fontFamily=Helvetica;fontSize=12;fontColor=default;startSize=26;" vertex="1" parent="63">
                    <mxGeometry y="216" width="440" height="26" as="geometry"/>
                </mxCell>
                <mxCell id="73" value="+ return( &quot;CampoSelect&quot; );" style="text;strokeColor=none;fillColor=none;align=left;verticalAlign=top;spacingLeft=4;spacingRight=4;overflow=hidden;rotatable=0;points=[[0,0.5],[1,0.5]];portConstraint=eastwest;fontFamily=Helvetica;fontSize=12;fontColor=default;startSize=26;" vertex="1" parent="63">
                    <mxGeometry y="242" width="440" height="26" as="geometry"/>
                </mxCell>
            </root>
        </mxGraphModel>
    </diagram>
</mxfile>